<svg width="40" height="40" viewBox="0 0 40 40" fill="none" xmlns="http://www.w3.org/2000/svg">
<path d="M0 34.2031H40V37.7945H0V34.2031Z" fill="white"/>
<path d="M37.5297 24.4805H2.47031L0 31.8594H40L37.5297 24.4805ZM9.48047 29.1922H7.13672V26.8484H9.48047V29.1922ZM24.4242 29.1922H22.0805V26.8484H24.4242V29.1922ZM29.6984 29.1922H27.3547V26.8484H29.6984V29.1922ZM34.9727 29.1922H32.6289V26.8484H34.9727V29.1922Z" fill="white"/>
<path d="M37.243 2.20547H21.436V8.32579L25.5672 11.1383V14.8352H23.2235V12.3781L20.2641 10.3633L17.304 12.3781V14.8352H14.9602V11.1383L19.0922 8.32501V2.20547H2.75708V22.1367H37.243V2.20547Z" fill="white"/>
</svg>
