<svg width="40" height="40" viewBox="0 0 40 40" fill="none" xmlns="http://www.w3.org/2000/svg">
<g clip-path="url(#clip0_2162_8133)">
<path d="M2.63525 13.2012V16.2708H6.00244V9.67734C4.13127 9.76148 2.63525 11.3099 2.63525 13.2012Z" fill="white"/>
<path d="M33.9979 16.2708H37.365V13.2012C37.365 11.3044 35.8604 9.75202 33.9814 9.67624L33.9979 16.2708Z" fill="white"/>
<path d="M7.90625 39.9903H16.193V37.6481C16.193 35.5489 17.9008 33.8411 20 33.8411C22.0992 33.8411 23.807 35.5489 23.807 37.6481V39.9903H32.0937V23.8856H7.90625V39.9903ZM26.8227 26.6669H29.1664V31.0591H26.8227V26.6669ZM18.8281 26.6669H21.1719V31.0591H18.8281V26.6669ZM10.8336 26.6669H13.1773V31.0591H10.8336V26.6669Z" fill="white"/>
<path d="M13.0298 16.2708V5.52545C10.8198 5.49342 8.9433 7.04186 8.46572 9.10358C8.3876 9.4403 8.34619 9.79108 8.34619 10.1512V16.2708H13.0298Z" fill="white"/>
<path d="M31.6538 16.2708V10.1512C31.6538 9.79108 31.6124 9.4403 31.5343 9.10358C31.0568 7.04186 29.1802 5.49334 26.9702 5.52545V16.2708H31.6538Z" fill="white"/>
<path d="M2.63525 23.8856H5.5626V39.9903H2.63525V23.8856Z" fill="white"/>
<path d="M34.4375 23.8856H37.3648V39.9903H34.4375V23.8856Z" fill="white"/>
<path d="M19.9999 36.1848C19.1929 36.1848 18.5366 36.8411 18.5366 37.6481V39.9903H21.4632V37.6481C21.4632 36.8411 20.8069 36.1848 19.9999 36.1848Z" fill="white"/>
<path d="M24.6266 16.2708C24.6273 15.5286 24.6261 5.19569 24.6266 4.87233C24.633 4.46413 24.6134 4.03499 24.5235 3.64655C23.4043 -1.20267 16.5954 -1.20251 15.4766 3.64663C15.3867 4.03483 15.3664 4.46421 15.3735 4.87233C15.381 5.16202 15.368 15.5712 15.3735 16.2708H24.6266ZM18.8281 3.73796H21.1719V13.577C20.5588 13.577 19.4411 13.577 18.8281 13.577C18.8281 11.688 18.8281 5.51803 18.8281 3.73796Z" fill="white"/>
<path d="M0 18.6145V21.5418H40V18.6145H0Z" fill="white"/>
</g>
<defs>
<clipPath id="clip0_2162_8133">
<rect width="40" height="40" fill="white"/>
</clipPath>
</defs>
</svg>
