<svg width="40" height="40" viewBox="0 0 40 40" fill="none" xmlns="http://www.w3.org/2000/svg">
<g clip-path="url(#clip0_2162_8158)">
<path d="M7.03125 18.0469H10.9375V21.9531H7.03125V18.0469Z" fill="white"/>
<path d="M18.0469 7.03125H21.9531V10.9375H18.0469V7.03125Z" fill="white"/>
<path d="M18.0469 29.0625H21.9531V32.9688H18.0469V29.0625Z" fill="white"/>
<path d="M7.03125 7.03125H10.9375V10.9375H7.03125V7.03125Z" fill="white"/>
<path d="M29.0625 18.0469H32.9688V21.9531H29.0625V18.0469Z" fill="white"/>
<path d="M0 0V40H40V0H0ZM27.062 6.68797L28.7193 5.0307L31.0156 7.32711L33.312 5.0307L34.9693 6.68797L32.6729 8.98438L34.9693 11.2808L33.312 12.938L31.0156 10.6416L28.7192 12.938L27.062 11.2808L29.3584 8.98438L27.062 6.68797ZM12.938 33.312L11.2807 34.9693L8.98438 32.6729L6.68797 34.9693L5.0307 33.312L7.32711 31.0156L5.0307 28.7192L6.68797 27.062L8.98438 29.3584L11.2808 27.062L12.938 28.7192L10.6416 31.0156L12.938 33.312ZM13.2812 24.2969H4.6875V15.7031H13.2812V24.2969ZM13.2812 13.2812H4.6875V4.6875H13.2812V13.2812ZM24.2969 35.3125H15.7031V26.7188H24.2969V35.3125ZM16.0464 17.7036L17.7037 16.0463L20 18.3427L22.2964 16.0463L23.9537 17.7036L21.6573 20L23.9537 22.2964L22.2964 23.9537L20 21.6573L17.7036 23.9537L16.0463 22.2964L18.3427 20L16.0464 17.7036ZM24.2969 13.2812H15.7031V4.6875H24.2969V13.2812ZM35.3125 35.3125H26.7188V26.7188H35.3125V35.3125ZM35.3125 24.2969H26.7188V15.7031H35.3125V24.2969Z" fill="white"/>
<path d="M29.0625 29.0625H32.9688V32.9688H29.0625V29.0625Z" fill="white"/>
</g>
<defs>
<clipPath id="clip0_2162_8158">
<rect width="40" height="40" fill="white"/>
</clipPath>
</defs>
</svg>
