<svg width="40" height="40" viewBox="0 0 40 40" fill="none" xmlns="http://www.w3.org/2000/svg">
<g clip-path="url(#clip0_2162_8148)">
<path d="M22.4225 2.42266C22.4225 3.75781 21.3357 4.84453 19.9998 4.84453C18.6639 4.84453 17.5771 3.75781 17.5771 2.42266C17.5771 1.08672 18.6639 0 19.9998 0C21.3357 0 22.4225 1.08672 22.4225 2.42266Z" fill="white"/>
<path d="M2.77324 12.1938C4.11124 12.1938 5.1959 11.1091 5.1959 9.77111C5.1959 8.43311 4.11124 7.34845 2.77324 7.34845C1.43525 7.34845 0.350586 8.43311 0.350586 9.77111C0.350586 11.1091 1.43525 12.1938 2.77324 12.1938Z" fill="white"/>
<path d="M37.2264 12.1938C38.5644 12.1938 39.649 11.1091 39.649 9.77111C39.649 8.43311 38.5644 7.34845 37.2264 7.34845C35.8884 7.34845 34.8037 8.43311 34.8037 9.77111C34.8037 11.1091 35.8884 12.1938 37.2264 12.1938Z" fill="white"/>
<path d="M8.05518 34.457H31.9442V40H8.05518V34.457Z" fill="white"/>
<path d="M33.4185 12.6344L26.1317 16.4172L20.931 7.09686C20.6294 7.15702 20.3185 7.18827 19.9997 7.18827C19.681 7.18827 19.37 7.15702 19.0685 7.09686L13.8677 16.4172L6.58096 12.6344C6.02627 13.3711 5.26299 13.9414 4.37939 14.2586L7.84893 32.1133H32.1505L35.62 14.2586C34.7364 13.9414 33.9731 13.3711 33.4185 12.6344ZM23.9825 24.2547L23.8122 28.2078L19.9997 27.1484L16.188 28.2078L16.0169 24.2547L13.8317 20.9562L17.538 19.5726L19.9997 16.475L22.4614 19.5726L26.1677 20.9562L23.9825 24.2547Z" fill="white"/>
<path d="M20 20.2422L18.968 21.5398L17.4141 22.1203L18.3305 23.5031L18.4023 25.1602L20 24.7164L21.5977 25.1602L21.6695 23.5031L22.5859 22.1203L21.032 21.5398L20 20.2422Z" fill="white"/>
</g>
<defs>
<clipPath id="clip0_2162_8148">
<rect width="40" height="40" fill="white"/>
</clipPath>
</defs>
</svg>
