<svg width="32" height="32" viewBox="0 0 32 32" fill="none" xmlns="http://www.w3.org/2000/svg">
<path d="M22.7979 10.1107V13.1875H20.7091V15.0625H26.7617V13.1875H24.6729V10.1107C25.9141 10.7046 27.446 10.4881 28.4743 9.45981C29.7779 8.15619 29.7779 6.04256 28.4743 4.73894L23.7354 0L18.9965 4.73887C17.6929 6.0425 17.6929 8.15613 18.9965 9.45975C20.0248 10.4881 21.5567 10.7046 22.7979 10.1107Z" fill="#185A61"/>
<path d="M4.61594 25.6562L8.84512 32L13.0742 25.6562L8.84512 19.3125L4.61594 25.6562Z" fill="#185A61"/>
<path d="M28.5311 22.4269C27.2118 21.1077 25.0729 21.1077 23.7536 22.4269L23.7354 22.4452L23.7171 22.4269C22.3979 21.1077 20.259 21.1077 18.9397 22.4269C17.6204 23.7462 17.6204 25.8851 18.9397 27.2044L23.7353 32L28.5309 27.2044C29.8503 25.8851 29.8503 23.7462 28.5311 22.4269Z" fill="#185A61"/>
<path d="M12.465 3.19094C12.2399 1.39194 10.7051 0 8.84512 0C6.98512 0 5.4503 1.39194 5.22524 3.19094C3.64687 3.59263 2.47949 5.02331 2.47949 6.72669C2.47949 8.74162 4.11293 10.3751 6.12787 10.3751C6.77443 10.3751 7.38105 10.2058 7.90762 9.91075V13.1875H5.8188V15.0625H11.8714V13.1875H9.78262V9.91069C10.3092 10.2057 10.9158 10.375 11.5624 10.375C13.5773 10.375 15.2107 8.74156 15.2107 6.72662C15.2107 5.02325 14.0433 3.59263 12.465 3.19094Z" fill="#185A61"/>
</svg>
